<?xml version="1.0" encoding="utf-8"?><!-- Uploaded to: SVG Repo, www.svgrepo.com, Generator: SVG Repo Mixer Tools -->
<svg fill="#000000" width="800px" height="800px" viewBox="0 0 24 24" id="database" data-name="Flat Line" xmlns="http://www.w3.org/2000/svg" class="icon flat-line"><path id="secondary" d="M4,6c0-1.66,3.58-3,8-3s8,1.34,8,3-3.58,3-8,3S4,7.66,4,6Zm8,9c-4.42,0-8-1.34-8-3v6c0,1.66,3.58,3,8,3s8-1.34,8-3V12C20,13.66,16.42,15,12,15Z" style="fill: rgb(44, 169, 188); stroke-width: 2;"></path><path id="primary" d="M4,12c0,1.66,3.58,3,8,3s8-1.34,8-3" style="fill: none; stroke: rgb(0, 0, 0); stroke-linecap: round; stroke-linejoin: round; stroke-width: 2;"></path><path id="primary-2" data-name="primary" d="M20,12h0v6c0,1.66-3.58,3-8,3s-8-1.34-8-3V12H4V6c0-1.66,3.58-3,8-3s8,1.34,8,3ZM12,3C7.58,3,4,4.34,4,6s3.58,3,8,3,8-1.34,8-3S16.42,3,12,3Z" style="fill: none; stroke: rgb(0, 0, 0); stroke-linecap: round; stroke-linejoin: round; stroke-width: 2;"></path></svg>