<?xml version="1.0" standalone="no"?>
<!DOCTYPE svg PUBLIC "-//W3C//DTD SVG 20010904//EN"
 "http://www.w3.org/TR/2001/REC-SVG-20010904/DTD/svg10.dtd">
<svg version="1.0" xmlns="http://www.w3.org/2000/svg"
 width="500.000000pt" height="500.000000pt" viewBox="0 0 500.000000 500.000000"
 preserveAspectRatio="xMidYMid meet">

<g transform="translate(0.000000,500.000000) scale(0.100000,-0.100000)"
fill="#000000" stroke="none">
<path d="M600 3369 c-25 -5 -82 -27 -126 -49 -95 -46 -174 -118 -226 -206 -58
-97 -73 -154 -73 -279 0 -127 23 -210 81 -296 19 -28 34 -55 34 -60 0 -4 -13
-28 -30 -52 -90 -134 -115 -327 -62 -479 92 -261 373 -416 640 -353 68 16 123
41 189 87 l42 29 43 -31 c161 -117 381 -131 563 -37 73 38 190 153 228 224 33
63 67 189 67 253 0 107 -46 248 -106 327 l-25 33 24 33 c59 78 107 223 107
322 0 68 -33 193 -67 258 -38 71 -155 186 -229 225 -114 59 -260 78 -378 47
-71 -19 -157 -59 -196 -92 l-30 -24 -33 25 c-48 37 -155 84 -216 96 -63 12
-157 11 -221 -1z m879 -408 c39 -39 39 -163 0 -202 -18 -18 -35 -19 -264 -19
l-245 0 0 -64 0 -65 170 -3 c161 -3 171 -4 192 -26 20 -19 23 -33 23 -98 0
-71 -2 -77 -28 -100 -27 -23 -33 -24 -193 -24 l-164 0 0 -160 c0 -157 -1 -161
-25 -185 -21 -22 -33 -25 -95 -25 -62 0 -74 3 -95 25 l-25 24 0 435 c0 261 4
445 10 461 5 14 20 30 32 35 13 5 173 9 356 9 315 1 333 0 351 -18z"/>
<path d="M3026 2627 c-14 -11 -16 -43 -14 -277 l3 -265 27 -3 c18 -2 31 4 41
18 l15 21 33 -20 c40 -25 117 -28 157 -7 37 19 78 65 92 101 15 39 15 131 0
170 -20 52 -58 93 -104 110 -54 21 -99 15 -150 -20 l-35 -24 -3 96 c-3 88 -5
96 -25 104 -13 5 -27 3 -37 -4z m233 -232 c53 -27 74 -124 39 -188 -13 -24
-68 -57 -96 -57 -71 0 -117 62 -110 148 4 47 10 60 37 84 36 32 84 37 130 13z"/>
<path d="M2735 2474 c-16 -8 -38 -23 -48 -31 -9 -9 -18 -14 -20 -12 -1 2 -7
13 -13 24 -14 24 -40 31 -59 15 -23 -19 -22 -352 1 -374 19 -19 25 -20 46 -3
14 10 17 36 20 140 3 127 3 129 31 153 36 31 98 33 127 4 18 -18 20 -33 20
-149 0 -122 1 -131 22 -145 15 -11 26 -12 40 -5 16 9 18 24 18 155 0 170 -10
207 -64 229 -45 19 -83 19 -121 -1z"/>
<path d="M3550 2475 c-75 -34 -113 -98 -114 -190 -1 -79 29 -140 86 -178 37
-24 51 -28 99 -25 37 3 66 12 87 27 26 18 32 19 32 7 0 -23 36 -39 60 -26 19
10 20 21 20 194 0 148 -3 186 -15 196 -20 16 -47 9 -60 -17 -11 -21 -11 -21
-41 -2 -43 27 -111 33 -154 14z m138 -81 c76 -53 66 -197 -16 -231 -97 -40
-187 57 -152 163 18 55 54 84 104 84 23 0 52 -7 64 -16z"/>
<path d="M3963 2471 c-65 -30 -89 -91 -58 -150 14 -29 49 -49 120 -71 60 -18
85 -37 85 -65 0 -53 -92 -59 -156 -10 -40 31 -68 30 -72 -3 -10 -68 137 -118
233 -78 44 19 70 59 69 108 -2 55 -32 82 -125 113 -65 22 -80 31 -85 51 -4 14
-1 31 6 39 18 21 79 18 118 -5 39 -24 68 -26 76 -4 25 64 -122 117 -211 75z"/>
<path d="M4344 2471 c-57 -26 -92 -67 -110 -129 -24 -80 -5 -160 48 -208 47
-43 87 -56 159 -52 75 4 122 28 127 67 5 31 -22 36 -83 16 -45 -16 -60 -17
-94 -7 -42 13 -81 53 -81 83 0 17 12 19 143 21 l142 3 -1 46 c-1 122 -141 212
-250 160z m135 -87 c17 -14 31 -34 31 -45 0 -17 -8 -19 -100 -19 -89 0 -100 2
-100 18 2 66 110 96 169 46z"/>
<path d="M2172 2468 c-8 -8 -12 -54 -12 -142 0 -149 11 -184 70 -224 30 -21
45 -23 107 -20 66 3 75 6 107 37 42 41 56 95 56 221 0 108 -10 140 -44 140
-38 0 -46 -27 -46 -155 0 -64 -5 -125 -11 -136 -14 -27 -56 -42 -96 -34 -51 9
-63 43 -63 183 0 120 -6 142 -40 142 -9 0 -21 -5 -28 -12z"/>
</g>
</svg>
