<?xml version="1.0" encoding="utf-8"?>
<!-- Uploaded to: SVG Repo, www.svgrepo.com, Generator: SVG Repo Mixer Tools -->
<svg width="800px" height="800px" viewBox="0 0 1024 1024" class="icon"  version="1.1" xmlns="http://www.w3.org/2000/svg"><path d="M512 512m-480 0a480 480 0 1 0 960 0 480 480 0 1 0-960 0Z" fill="#E5F1FF" /><path d="M512 179.2c-96 102.4-262.4 236.8-262.4 384s115.2 262.4 262.4 262.4 262.4-115.2 262.4-262.4-160-281.6-262.4-384z" fill="#9FC8FE" /><path d="M512 684.8c-57.6 0-102.4-44.8-102.4-108.8 0-57.6 64-102.4 102.4-147.2 38.4 44.8 102.4 89.6 102.4 147.2 0 57.6-44.8 108.8-102.4 108.8z" fill="#72AEFD" /></svg>